# xmcd CD database file
#
# Track frame offsets:
#	182
#	20467
#	35707
#	49830
#	79270
#	107547
#	131262
#	154527
#	183495
#	202987
#	220290
#
# Disc length: 3297 seconds
#
# Revision: 2
# Processed by: cddbd v1.4PL0 Copyright (c) Steve Scherf et al.
# Submitted via: CDex 1.40Release
#
DISCID=8e0cdf0b
DTITLE=Oficina Blues - The Up Blues
DYEAR=1900
DGENRE=Blues
TTITLE0=You Gotta Suffer
TTITLE1=Everybody Wanna Know
TTITLE2=Strange Woman Blues
TTITLE3=Love Treasons
TTITLE4=Rio Blues
TTITLE5=Don´t Know How
TTITLE6=I Just Want To Live My Life
TTITLE7=You Ain´t The Woman Used To Be
TTITLE8=Frisco Bay Blues
TTITLE9=Brand New Ax
TTITLE10=I Miss Your Love
EXTD=ID3G: 0
EXTT0=
EXTT1=
EXTT2=
EXTT3=
EXTT4=
EXTT5=
EXTT6=
EXTT7=
EXTT8=
EXTT9=
EXTT10=
PLAYORDER=
